<?xml version="1.0" encoding="UTF-8" standalone="no"?>
<!-- Created with Inkscape (http://www.inkscape.org/) -->

<svg
   xmlns:dc="http://purl.org/dc/elements/1.1/"
   xmlns:cc="http://creativecommons.org/ns#"
   xmlns:rdf="http://www.w3.org/1999/02/22-rdf-syntax-ns#"
   xmlns:svg="http://www.w3.org/2000/svg"
   xmlns="http://www.w3.org/2000/svg"
   xmlns:sodipodi="http://sodipodi.sourceforge.net/DTD/sodipodi-0.dtd"
   xmlns:inkscape="http://www.inkscape.org/namespaces/inkscape"
   width="2048"
   height="768"
   id="svg2"
   version="1.1"
   inkscape:version="0.48.5 r10040"
   sodipodi:docname="Make_by_Nancy_LOGO.svg"
   inkscape:export-filename="C:\Users\Maciej\Desktop\Zlecenia\Zlecenia_Aleksandra\Make_by_Nancy\Gotowce\000_Tiny.png"
   inkscape:export-xdpi="90"
   inkscape:export-ydpi="90">
  <defs
     id="defs4">
    <clipPath
       clipPathUnits="userSpaceOnUse"
       id="clipPath3035">
      <rect
         style="opacity:0.37586209;fill:#000000;fill-opacity:1;stroke:none"
         id="rect3037"
         width="254.28572"
         height="147.14285"
         x="1257.1428"
         y="-329.06641"
         rx="7.0268402"
         ry="7.0268402" />
    </clipPath>
  </defs>
  <sodipodi:namedview
     id="base"
     pagecolor="#ffffff"
     bordercolor="#666666"
     borderopacity="1.0"
     inkscape:pageopacity="0.0"
     inkscape:pageshadow="2"
     inkscape:zoom="0.35"
     inkscape:cx="1027.1817"
     inkscape:cy="207.0339"
     inkscape:document-units="px"
     inkscape:current-layer="layer1"
     showgrid="false"
     inkscape:showpageshadow="false"
     borderlayer="true"
     showborder="true"
     inkscape:window-width="1920"
     inkscape:window-height="1027"
     inkscape:window-x="-8"
     inkscape:window-y="-8"
     inkscape:window-maximized="1"
     inkscape:snap-global="false"
     showguides="true"
     inkscape:guide-bbox="true" />
  <metadata
     id="metadata7">
    <rdf:RDF>
      <cc:Work
         rdf:about="">
        <dc:format>image/svg+xml</dc:format>
        <dc:type
           rdf:resource="http://purl.org/dc/dcmitype/StillImage" />
        <dc:title></dc:title>
      </cc:Work>
    </rdf:RDF>
  </metadata>
  <g
     inkscape:label="Layer 1"
     inkscape:groupmode="layer"
     id="layer1"
     transform="translate(0,-284.3622)">
    <g
       id="g3859"
       transform="translate(-0.01805296,0.00236)">
      <path
         style="font-size:medium;font-style:normal;font-variant:normal;font-weight:normal;font-stretch:normal;text-indent:0;text-align:start;text-decoration:none;line-height:normal;letter-spacing:normal;word-spacing:normal;text-transform:none;direction:ltr;block-progression:tb;writing-mode:lr-tb;text-anchor:start;baseline-shift:baseline;color:#000000;fill:#000000;fill-opacity:1;stroke:none;stroke-width:3.5999999;marker:none;visibility:visible;display:inline;overflow:visible;enable-background:accumulate;font-family:Sans;-inkscape-font-specification:Sans"
         d="m 1608.0179,450.51397 c -9.6252,64.32343 -28.822,111.15538 -50.5625,147.5 -4.784,5.15638 -9.5613,9.97356 -14.3437,14.5625 -1.8019,-0.34961 -3.6084,-0.71711 -5.4376,-1.0625 14.975,-27.26895 25.2787,-54.91203 31.1563,-85.25 10.1338,-17.28493 20.4749,-35.7845 32.2187,-54.65625 -11.3736,15.67172 -21.3247,30.94919 -30.5624,45.3125 3.0313,-18.80587 4.4395,-38.69593 4.2812,-60.1875 -2.4527,27.0099 -6.7589,51.07936 -12.3438,72.6875 -13.2636,20.58149 -25.3956,38.80501 -38.6874,52.71875 -8.9297,9.34737 -19.6238,16.23639 -29.75,22.09375 -0.01,-10e-4 -0.021,10e-4 -0.031,0 1.2416,-6.60513 2.1842,-13.00941 2.75,-19.21875 18.5665,-19.35947 32.5734,-42.91962 43.4063,-73.34375 -13.8831,25.34316 -28.2642,44.97333 -42.75,60.5625 0.2462,-21.87878 -4.327,-42.16121 -14.8126,-64.03125 3.3811,-4.9059 7.0535,-9.94821 11.0938,-15.09375 -20.3645,19.03353 -33.8394,38.01524 -42.2812,59.15625 -4.7666,-16.93958 -12.79,-32.61402 -24.9376,-48.65625 11.6781,21.37465 18.3091,40.07798 21.9376,56.84375 -4.0363,12.2068 -6.5522,25.18804 -7.875,39.34375 -6.7562,-0.15651 -13.4289,-0.14675 -20.0313,0.0312 5.0497,-20.47816 8.1481,-42.34992 9.4063,-66.34375 -3.4688,22.90269 -8.1503,43.56815 -13.7188,62.34375 -5.6258,-28.36773 -9.2546,-64.60906 -6.9375,-116.90625 -5.6341,46.47167 -4.2252,83.32944 3.625,121.1875 -4.0713,0.19069 -8.0952,0.43067 -12.125,0.75 -12.3021,-25.72128 -21.3723,-58.96129 -16.7187,-110.25 -10.6057,42.71503 -6.9913,75.91935 9.5937,110.90625 -1.6656,0.16415 -3.3395,0.34496 -5,0.53125 -19.3443,-15.1271 -39.4896,-36.41638 -57.0625,-74.5 8.6141,29.45784 22.2857,50.646 43.625,69.53125 -13.7363,-7.4381 -28.0855,-17.19978 -43,-30.65625 -3.5202,-12.72766 -6.6603,-26.28085 -9.3438,-40.75 1.0941,12.77529 2.6919,24.91892 4.8126,36.5625 -6.2216,-5.88635 -12.5314,-12.41693 -18.9376,-19.71875 6.336,9.88097 13.0159,18.6267 20.2188,26.40625 2.9687,14.62862 6.8186,28.46459 11.5625,41.71875 -6.7682,1.64965 -13.5554,3.47933 -20.375,5.5 -16.2215,-14.55556 -32.5897,-34.61405 -47.1875,-66.25 8.3612,28.59324 21.4935,49.40728 41.7812,67.875 -3.4041,1.0541 -6.8216,2.13558 -10.25,3.28125 -20.4029,-13.80791 -43.8209,-32.49836 -71.6562,-59.5625 22.6467,25.67957 43.9573,45.09179 66.875,61.1875 -6.8932,2.37953 -13.8396,4.94179 -20.875,7.6875 -14.6119,-7.95643 -28.7997,-18.59108 -40.2812,-32.75 10.6396,15.57417 20.95,27.19739 32.0312,36.0625 -5.508,2.23919 -11.059,4.54153 -16.6875,7 -10.268,-6.76572 -22.5806,-16.38329 -34.1563,-28.6875 -2.2792,-9.19888 -4.3545,-18.82338 -6.2187,-28.875 0.7452,8.70159 1.7192,17.12083 2.9375,25.28125 -13.1393,-14.75966 -24.892,-33.01081 -30.9062,-54.4375 6.3652,32.76604 16.6359,53.87537 33.9062,71.5625 1.9683,9.83035 4.2132,19.0069 6.8438,27.875 -8.112,3.88389 -16.3878,7.94973 -24.8438,12.25 -1.813,-15.48627 -3.4943,-34.3517 -5.5312,-43.6875 -1.9385,-8.88831 -3.9098,-17.74005 -5.5313,-26.6875 0.6211,9.07319 1.62,18.11579 2.5625,27.15625 0.9891,9.49004 1.6119,28.51214 2.375,44.15625 -8.2512,-0.86772 -17.3483,-1.95545 -25.6562,-2.84375 -11.3195,-13.73076 -22.5863,-29.18604 -33.6876,-46.65625 8.543,16.90527 17.609,32.1371 27.375,46 -4.7647,-0.44695 -8.9873,-0.73039 -12.1562,-0.75 -7.9127,-0.0496 -15.8184,-0.0867 -23.7188,-0.34375 -13.7503,-10.62995 -27.815,-22.85758 -42.1562,-37 22.9614,27.59424 45.5806,48.25048 70.8438,64.65625 -9.7156,5.52661 -20.1421,12.15106 -30.8438,19.4375 -12.9415,-9.87757 -30.2225,-24.44247 -39.25,-30.15625 -7.6617,-4.85033 -15.3317,-9.66263 -22.8125,-14.78125 6.8677,5.9231 13.9922,11.57983 21.0625,17.25 7.9536,6.37829 23.3934,20.79229 35.4375,31.53125 -5.012,3.49157 -10.0417,7.12493 -15.0937,10.84375 -15.0288,-6.97653 -30.0529,-10.55316 -47.625,-10.65625 -10.6598,-0.0625 -22.2419,1.16568 -35.3438,3.65625 27.0642,-2.86155 52.9128,4.11672 74,13.65625 -26.475,20.0703 -52.1796,42.09979 -70.625,60.375 -10.0343,9.9413 -24.4234,18.4559 -32.62532,30.2813 -4.9105,7.07991 -9.54749,9.10669 6,4.25 24.94432,-7.79201 48.83292,-13.53528 73.78122,-17.46875 49.7262,-7.83999 99.2081,-2.80325 143.6876,11.0625 65.9068,13.78577 125.6967,28.21635 184.7812,30.9375 4.338,29.39851 6.1289,63.52504 4.1562,103.96875 2.7721,-39.4498 2.078,-73.13907 -2.0624,-103.875 27.6084,1.14159 55.0882,-0.2932 82.9687,-5.59375 4.3189,29.34002 6.1235,63.38302 4.1563,103.71875 2.7792,-39.55383 2.0788,-73.32565 -2.0938,-104.125 7.4964,-1.47565 15.0252,-3.2205 22.5938,-5.28125 5.5702,-1.53652 10.9668,-3.11145 16.2187,-4.71875 16.4152,33.39533 29.7315,73.83445 39.25,131.0625 -7.9308,-54.92918 -19.0449,-94.83904 -36.9375,-131.78125 21.476,-6.669 40.2704,-13.87432 56.875,-21.21875 26.6019,28.97908 48.7228,65.88948 63.2812,120.5625 -12.0141,-53.07076 -30.6796,-90.15776 -59.5624,-122.1875 13.3835,-6.05492 25.2948,-12.21284 35.9374,-18.1875 20.5495,26.78586 36.5783,59.11051 48.6563,104.46875 -10.1415,-44.80412 -23.7364,-77.47967 -45.3437,-106.34375 6.1585,-3.52441 11.8783,-6.98995 17.2187,-10.34375 8.124,16.18279 15.2118,34.03209 22.4063,54.9375 -4.9451,-21.84375 -10.241,-40.69217 -17.4376,-58.09375 4.7539,-3.05677 9.1304,-5.97686 13.2813,-8.78125 24.9252,15.89039 50.2806,37.24369 77.3437,68.03125 -22.4204,-31.94512 -44.6074,-55.16429 -70.0937,-72.9375 5.9728,-4.08436 11.3891,-7.81753 16.25,-10.9375 2.8054,-1.8006 5.854,-3.65166 9.0313,-5.53125 18.4522,20.03736 36.6488,44.99733 53.9062,76.5625 -13.362,-32.3786 -28.7511,-58.64483 -47.0938,-80.5 2.9023,-1.64389 5.8912,-3.31295 9,-5 30.4935,17.28133 62.7074,42.9641 95.75,82.1875 -26.5301,-39.54217 -54.4802,-67.27815 -87.0312,-86.84375 3.8748,-2.03913 7.8988,-4.10906 11.9688,-6.1875 57.5861,11.8611 109.8353,8.29568 171.2187,-14.125 -66.3529,17.04226 -118.8781,16.53755 -162.0313,9.4375 0.1339,-0.0673 0.2723,-0.1202 0.4063,-0.1875 53.9199,7.69766 104.0713,-1.58492 162.6563,-32.28125 -59.9494,23.46073 -108.5793,28.66918 -149.1876,25.5625 1.9854,-0.98203 3.9414,-1.95398 5.9376,-2.9375 59.3543,0.6331 110.2265,-16.64534 166.4687,-59.78125 -58.0663,35.18764 -107.1922,48.26197 -149.1875,51.3125 11.0247,-5.41705 21.9145,-10.80421 32.2188,-16.03125 0.168,-0.0844 0.3399,-0.1559 0.5,-0.25 0.132,-0.0756 0.2509,-0.16475 0.375,-0.25 1.3917,-0.95403 3.1627,-2.18171 4.625,-3.1875 46.5548,-7.70339 88.1707,-28.29893 132.375,-66.71875 -42.3596,29.36107 -80.3496,45.7172 -114.4376,54.34375 54.0206,-37.50966 130.9974,-92.12317 131,-92.125 -46.6884,22.82737 -104.0754,48.90098 -158.2187,62.375 40.7976,-22.49982 77.7852,-54.63672 93,-93.84375 -28.4994,51.04678 -80.3668,83.07408 -128.9063,100.84375 -0.8655,0.11672 -1.7318,0.2048 -2.5937,0.3125 56.7896,-31.07815 116.1672,-84.43756 130.9375,-146.65625 -29.5873,76.95096 -103.0921,125.40938 -161.6875,148.34375 -5.4004,-0.0888 -10.7964,-0.36286 -16.2187,-0.8125 60.6263,-19.73114 106.3347,-50.52219 149.875,-104.90625 -48.5914,49.76596 -94.3339,76.78818 -135.3126,93.125 27.1291,-17.07565 51.701,-39.12364 75.7813,-68.0625 -33.2529,32.79197 -65.0251,55.35011 -94.8125,71.34375 47.963,-31.84709 92.6468,-78.29829 105.1875,-131.125 -24.835,64.59197 -80.6055,109.08405 -132.5313,135.28125 -1.7769,-0.32076 -3.5811,-0.6238 -5.375,-0.96875 47.043,-29.92947 81.2076,-67.39257 109.875,-123.28125 -32.8763,51.05474 -67.0644,84.70183 -99.75,108.5625 6.7328,-7.70376 13.0625,-15.80476 19.0313,-24.375 32.6254,-29.71855 57.0644,-65.17453 76.8437,-112.625 -19.425,36.15279 -40.0819,64.44013 -60.9062,87.125 7.0486,-12.60048 13.5501,-26.17123 19.5938,-40.875 -11.6749,21.99006 -23.8185,41.07155 -36.1876,57.78125 -18.2767,17.42608 -36.4777,30.9942 -53.875,42.25 -2.7412,-0.633 -5.545,-1.30272 -8.3437,-1.96875 1.6972,-2.51922 3.3607,-5.05968 4.9687,-7.625 31.9652,-24.46621 57.9359,-54.9934 81.25,-96.03125 -23.9133,33.86458 -48.0933,59.59501 -71.75,79.65625 15.1326,-28.19467 25.6671,-59.42949 32.4063,-96.375 -12.7206,44.50566 -29.0867,79.56682 -46.9375,108.0625 -4.2727,3.25449 -8.4977,6.32499 -12.7188,9.25 -4.9484,-1.20911 -10.0258,-2.48077 -15.1874,-3.75 0.3333,-0.52051 0.6698,-1.03938 1,-1.5625 28.3411,-27.00367 50.5623,-59.26449 69.3124,-101.21875 -18.1817,31.87282 -37.2,57.42686 -56.3124,78.3125 9.8877,-19.43365 18.0603,-40.78082 24.7812,-64.78125 -12.6524,32.51909 -26.8943,59.49059 -41.875,82.25 -1.7604,1.68029 -3.5229,3.32682 -5.2812,4.9375 -3.0045,-0.73449 -6.0089,-1.44287 -9.0938,-2.1875 9.0025,-12.11927 17.513,-25.35096 25.6875,-39.90625 -10.0156,14.3329 -20.09,27.21945 -30.1563,38.84375 -2.2184,-0.53102 -4.5188,-1.06031 -6.7812,-1.59375 10.2603,-11.56799 19.749,-24.21611 28.6562,-38.15625 33.1346,-34.59393 55.9203,-74.26906 71.9688,-127.1875 -16.2838,39.33633 -34.7254,70.39675 -53.9062,95.5625 0.3465,-0.6768 0.6862,-1.34902 1.0312,-2.03125 -0.903,1.42037 -1.8136,2.82494 -2.7188,4.21875 -20.9086,27.00297 -42.6119,47.07879 -63.3124,63.375 -1.633,-0.36461 -3.3123,-0.73035 -4.9688,-1.09375 17.096,-13.14406 33.4618,-28.70637 49.6875,-47.25 -19.5672,18.36001 -38.564,33.33662 -56.9063,45.65625 -3.2332,-0.68989 -6.5186,-1.35062 -9.8437,-2.03125 51.1048,-33.22894 86.4821,-73.54447 114.625,-134.75 -33.8302,57.85666 -70.194,94.60946 -104.8125,120.3125 29.2781,-31.70126 50.3751,-68.41717 66.125,-116.25 -15.9816,36.16183 -33.662,65.141 -51.9375,88.875 17.5461,-36.32043 27.0476,-75.34209 29.4375,-122.53125 z m -125.75,58.03125 c 8.5361,27.39498 10.8181,49.78893 10.0312,68.96875 -9.136,9.24087 -18.2856,16.92813 -27.375,23.53125 -0.2074,-0.0165 -0.4177,-0.0151 -0.625,-0.0312 8.732,-18.58015 15.9408,-38.82884 21.8438,-61.40625 -8.4513,22.88652 -17.7344,43.05341 -27.5312,61 -0.5311,-0.0347 -1.064,-0.061 -1.5938,-0.0937 0.1152,-12.83755 -0.7232,-24.62009 -2.7812,-35.75 5.2605,-16.97992 13.8504,-35.57245 28.0312,-56.21875 z m 76.3125,34.78125 c -0.2614,0.87617 -0.5469,1.7261 -0.8125,2.59375 -4.9884,7.44017 -10.0068,14.48247 -15.0312,21.1875 5.4396,-7.46355 10.6751,-15.43542 15.8437,-23.78125 z m -0.9687,3.1875 c -7.4962,24.34193 -16.6425,45.31852 -26.5313,63.78125 -4.8532,-0.88539 -9.793,-1.74644 -14.8437,-2.59375 15.1419,-17.61338 28.7343,-37.72892 41.375,-61.1875 z m -223.0938,28.15625 c 11.9744,11.70055 25.4173,21.11215 41,29.0625 -9.7035,1.43789 -19.3652,3.26891 -29.0312,5.46875 -4.2965,-10.76589 -8.3113,-22.24939 -11.9688,-34.53125 z m 116.5312,1.8125 c 1.0097,8.38322 1.3545,16.26246 1.3438,23.75 -1.7573,-0.0901 -3.5052,-0.15062 -5.25,-0.21875 0.7764,-7.51108 1.9829,-15.32492 3.9062,-23.53125 z m 83.9063,0.71875 c -8.5289,10.74568 -17.0655,20.47128 -25.5937,29.375 -1.3431,-0.21613 -2.674,-0.44332 -4.0313,-0.65625 8.1359,-6.09545 15.6057,-12.83832 22.875,-20.84375 2.2983,-2.53091 4.5498,-5.17041 6.75,-7.875 z m -43.6563,13.21875 c -0.5212,4.5632 -1.1704,8.95457 -1.9374,13.1875 -3.9554,-0.51166 -7.8695,-0.9633 -11.75,-1.375 4.802,-3.76575 9.3661,-7.68137 13.6874,-11.8125 z m 112.9376,13.78125 c -5.4391,6.36195 -10.8996,12.31321 -16.3438,17.9375 -1.364,-0.31563 -2.7133,-0.62195 -4.0938,-0.9375 7.1527,-5.5854 13.9721,-11.23942 20.4376,-17 z m 86.8437,20.9375 c -5.6087,6.25175 -11.2485,12.06878 -16.875,17.53125 -2.1239,-0.45145 -4.2521,-0.9284 -6.4063,-1.40625 8.1373,-5.23774 15.9125,-10.58458 23.2813,-16.125 z m -466.3437,5.5625 c 5.5247,5.04961 11.7107,9.88127 18.5937,14.6875 -3.98,1.80667 -7.9777,3.68108 -12.0313,5.59375 -2.281,-6.44446 -4.4646,-13.14625 -6.5624,-20.28125 z m 195.5624,15.125 c 1.6809,-0.0106 3.3757,-0.008 5.0626,0 21.1218,0.0943 42.6733,1.61989 63.625,5.0625 12.3816,13.48352 22.7772,38.74915 26.9687,68.28125 5.936,41.82352 -38.5131,110.33141 -58.25,115.34375 -44.4139,5.47808 -84.2917,2.68099 -128.0937,-4.53125 -25.3554,-14.03499 -56.5132,-65.36009 -57.1563,-112.84375 -0.3001,-22.03329 10.2006,-36.86341 16.3125,-51.8125 30.4115,-10.27541 79.4243,-19.17275 131.5312,-19.5 z m -292.25,16.625 c 7.6153,1.09524 15.2744,1.99994 22.9063,2.90625 3.925,0.46606 9.5251,1.38717 15.75,2.46875 2.8978,3.95373 5.812,7.69832 8.7813,11.3125 -4.33,2.30517 -8.7207,4.65841 -13.1563,7.0625 -11.0194,-6.75733 -22.2624,-14.4947 -34.2813,-23.75 z m 402.5626,0.15625 c 28.349,10.87986 56.7194,26.59133 91.5624,46.5 18.422,10.52605 52.6464,28.43918 44.5,36.5625 0,0 -62.5348,50.68842 -160.3124,79.03125 -4.9667,1.4397 -9.9555,2.73267 -15,3.90625 30.4698,-27.33299 49.6562,-67.06378 49.6562,-111.21875 0,-19.34156 -3.7122,-37.80176 -10.4062,-54.78125 z m -139.4376,3.625 a 44.190907,44.405605 0 0 0 -44.1874,44.40625 44.190907,44.405605 0 0 0 44.1874,44.40625 44.190907,44.405605 0 0 0 44.1876,-44.40625 44.190907,44.405605 0 0 0 -44.1876,-44.40625 z m -217.0312,2.90625 c 5.0678,0.90901 10.1287,1.81946 15.1562,2.71875 -2.8772,1.49763 -5.765,3.05011 -8.6874,4.59375 -2.1417,-2.33078 -4.2943,-4.7644 -6.4688,-7.3125 z m 75.625,8.3125 c -3.5298,12.73776 -5.5,26.09826 -5.5,39.9375 0,41.21518 16.7492,78.5572 43.75,105.5625 -24.0679,-5.24087 -47.0913,-11.41914 -68.2812,-17.84375 -50.533,-15.32112 -100.4875,-18.20788 -149.3126,-11.5625 -13.3413,1.81588 -24.6309,2.94596 -37.875,6.90625 66.7232,-54.45881 144.5891,-96.87011 217.2188,-123 z"
         id="path3009"
         inkscape:connector-curvature="0" />
      <text
         sodipodi:linespacing="100%"
         id="text3018"
         y="590.2605"
         x="147.07025"
         style="font-size:227.83117676px;font-style:normal;font-variant:normal;font-weight:normal;font-stretch:normal;line-height:100%;letter-spacing:0px;word-spacing:0px;fill:#000000;fill-opacity:1;stroke:none;font-family:Cambria;-inkscape-font-specification:Cambria"
         xml:space="preserve"><tspan
           style="font-style:normal;font-variant:normal;font-weight:normal;font-stretch:normal;font-family:Bebas Neue;-inkscape-font-specification:Bebas Neue"
           y="590.2605"
           x="147.07025"
           id="tspan3020"
           sodipodi:role="line">MAKE BY NANCY</tspan></text>
    </g>
  </g>
</svg>
